<svg width="81" height="43" viewBox="0 0 81 43" fill="none" xmlns="http://www.w3.org/2000/svg">
<mask id="mask0_635_3090" style="mask-type:luminance" maskUnits="userSpaceOnUse" x="0" y="0" width="81" height="43">
<path d="M0 0H80.4844V42.5573H0V0Z" fill="white"/>
</mask>
<g mask="url(#mask0_635_3090)">
<path d="M56.5 0.0989348C48.875 1.11456 42.0677 5.83331 38.8073 12.9271C35.3333 20.4896 32.7135 32.6094 22.3125 33.0677C20.2083 33.1614 18.2656 32.9687 16.3438 32.0573C9.01042 28.5833 7.85937 18.7083 13.1667 12.9323C15.9271 9.92706 20.3177 8.69789 24.2448 9.68748C25.6406 10.0364 26.9063 10.6875 28.1146 11.4479C28.625 11.7708 29.2604 12.2135 29.8594 11.8333C30.6875 11.3073 31.2865 9.98956 31.8802 9.21873C32.6458 8.22914 34.625 6.54164 34.5156 5.18748C34.3854 3.65102 31.5885 2.63018 30.375 2.13018C25.8594 0.255185 20.6354 -0.166689 15.8594 0.807268C-1.94271 4.42185 -5.67708 30.0469 9.40625 39.3541C16.0521 43.4531 26.4167 43.4791 32.9531 39.1458C34.7813 37.9323 36.2813 36.4062 37.6302 34.6875C38.0625 34.1354 38.724 32.6666 39.4896 32.5573C40.1198 32.4635 40.9167 34.1041 41.25 34.526C42.7135 36.4166 44.5781 38.0312 46.6615 39.2239C52.6823 42.6614 59.9844 43.1823 66.4948 40.8646C77.0885 37.0937 83.026 24.3437 79.1667 13.7344C76.6823 6.90623 70.6302 2.08331 63.5938 0.67706C61.3646 0.229144 58.7708 -0.203148 56.5 0.0989348Z" fill="#F43210"/>
</g>
<path d="M57.357 10.1426C48.4143 11.5384 44.5809 23.4238 51.7111 29.3613C53.0028 30.4342 54.6174 31.127 56.2268 31.5332C57.6799 31.8978 59.4143 32.0228 60.9038 31.778C62.3882 31.5384 63.8882 30.9186 65.0966 30.0332C73.9768 23.5592 68.6851 8.37174 57.357 10.1426Z" fill="white"/>
</svg>
