<svg width="300" height="110" viewBox="0 0 300 110" fill="none" xmlns="http://www.w3.org/2000/svg">
<path d="M0 50C0 22.3858 22.3858 0 50 0H290C295.523 0 300 4.4772 300 10V60C300 87.614 277.614 110 250 110H10C4.4772 110 0 105.523 0 100V50Z" fill="white"/>
<path d="M55 80C68.8071 80 80 68.8071 80 55C80 41.1929 68.8071 30 55 30C41.1929 30 30 41.1929 30 55C30 68.8071 41.1929 80 55 80Z" fill="#FDEDEF"/>
<path d="M61.092 65.4375C60.139 65.4375 58.7999 65.0928 56.795 63.9727C54.357 62.6055 52.4713 61.3433 50.0465 58.9248C47.7086 56.5884 46.5709 55.0757 44.9786 52.1783C43.1798 48.9068 43.4864 47.1919 43.8292 46.459C44.2374 45.583 44.8399 45.0591 45.6187 44.5391C46.0611 44.2493 46.5292 44.0008 47.0172 43.7969C47.066 43.7759 47.1114 43.7559 47.1519 43.7378C47.3936 43.6289 47.7599 43.4644 48.2237 43.6402C48.5333 43.7564 48.8097 43.9942 49.2423 44.4214C50.1295 45.2964 51.3419 47.2452 51.7891 48.2022C52.0894 48.8472 52.2882 49.273 52.2887 49.7505C52.2887 50.3096 52.0074 50.7408 51.6661 51.2061C51.6021 51.2935 51.5387 51.377 51.4771 51.458C51.1056 51.9463 51.024 52.0874 51.0777 52.3394C51.1866 52.8457 51.9986 54.3531 53.3331 55.6846C54.6676 57.0161 56.1314 57.7769 56.6397 57.8853C56.9024 57.9414 57.0465 57.8565 57.5504 57.4717C57.6226 57.4165 57.6969 57.3594 57.7745 57.3023C58.295 56.9151 58.7061 56.6411 59.252 56.6411H59.255C59.7301 56.6411 60.137 56.8472 60.811 57.187C61.69 57.6304 63.697 58.8272 64.577 59.7154C65.005 60.147 65.244 60.4224 65.361 60.7315C65.537 61.1968 65.371 61.5616 65.263 61.8057C65.245 61.8462 65.225 61.8907 65.204 61.94C64.999 62.4271 64.749 62.8942 64.458 63.3355C63.939 64.1119 63.413 64.7129 62.535 65.1216C62.084 65.3349 61.591 65.4429 61.092 65.4375Z" fill="#EE4A62"/>
<path d="M100.122 46.091C99.2639 46.091 98.475 45.8917 97.756 45.493C97.045 45.0943 96.4779 44.5397 96.0529 43.829C95.6369 43.1097 95.429 42.3037 95.429 41.411C95.429 40.5183 95.6369 39.7167 96.0529 39.006C96.4779 38.2953 97.045 37.7407 97.756 37.342C98.475 36.9433 99.2639 36.744 100.122 36.744C100.98 36.744 101.764 36.9433 102.475 37.342C103.194 37.7407 103.758 38.2953 104.165 39.006C104.581 39.7167 104.789 40.5183 104.789 41.411C104.789 42.3037 104.581 43.1097 104.165 43.829C103.749 44.5397 103.186 45.0943 102.475 45.493C101.764 45.8917 100.98 46.091 100.122 46.091ZM100.122 44.063C100.85 44.063 101.431 43.8203 101.864 43.335C102.306 42.8497 102.527 42.2083 102.527 41.411C102.527 40.605 102.306 39.9637 101.864 39.487C101.431 39.0017 100.85 38.759 100.122 38.759C99.3849 38.759 98.796 38.9973 98.354 39.474C97.921 39.9507 97.7039 40.5963 97.7039 41.411C97.7039 42.217 97.921 42.8627 98.354 43.348C98.796 43.8247 99.3849 44.063 100.122 44.063ZM114.58 46H112.357L108.639 40.371V46H106.416V36.874H108.639L112.357 42.529V36.874H114.58V46ZM118.804 44.284H121.716V46H116.581V36.874H118.804V44.284ZM125.389 36.874V46H123.166V36.874H125.389ZM135.554 46H133.331L129.613 40.371V46H127.39V36.874H129.613L133.331 42.529V36.874H135.554V46ZM139.779 38.655V40.501H142.756V42.217H139.779V44.219H143.146V46H137.556V36.874H143.146V38.655H139.779ZM151.426 46.091C150.759 46.091 150.161 45.9827 149.632 45.766C149.103 45.5493 148.679 45.2287 148.358 44.804C148.046 44.3793 147.881 43.868 147.864 43.27H150.23C150.265 43.608 150.382 43.868 150.581 44.05C150.78 44.2233 151.04 44.31 151.361 44.31C151.69 44.31 151.95 44.2363 152.141 44.089C152.332 43.933 152.427 43.7207 152.427 43.452C152.427 43.2267 152.349 43.0403 152.193 42.893C152.046 42.7457 151.859 42.6243 151.634 42.529C151.417 42.4337 151.105 42.3253 150.698 42.204C150.109 42.022 149.628 41.84 149.255 41.658C148.882 41.476 148.562 41.2073 148.293 40.852C148.024 40.4967 147.89 40.033 147.89 39.461C147.89 38.6117 148.198 37.9487 148.813 37.472C149.428 36.9867 150.23 36.744 151.218 36.744C152.223 36.744 153.034 36.9867 153.649 37.472C154.264 37.9487 154.594 38.616 154.637 39.474H152.232C152.215 39.1793 152.106 38.9497 151.907 38.785C151.708 38.6117 151.452 38.525 151.14 38.525C150.871 38.525 150.655 38.5987 150.49 38.746C150.325 38.8847 150.243 39.0883 150.243 39.357C150.243 39.6517 150.382 39.8813 150.659 40.046C150.936 40.2107 151.37 40.3883 151.959 40.579C152.548 40.7783 153.025 40.969 153.389 41.151C153.762 41.333 154.082 41.5973 154.351 41.944C154.62 42.2907 154.754 42.737 154.754 43.283C154.754 43.803 154.62 44.2753 154.351 44.7C154.091 45.1247 153.71 45.4627 153.207 45.714C152.704 45.9653 152.111 46.091 151.426 46.091ZM158.696 36.874V42.334C158.696 42.88 158.83 43.3003 159.099 43.595C159.368 43.8897 159.762 44.037 160.282 44.037C160.802 44.037 161.201 43.8897 161.478 43.595C161.755 43.3003 161.894 42.88 161.894 42.334V36.874H164.117V42.321C164.117 43.1357 163.944 43.8247 163.597 44.388C163.25 44.9513 162.782 45.376 162.193 45.662C161.612 45.948 160.962 46.091 160.243 46.091C159.524 46.091 158.878 45.9523 158.306 45.675C157.743 45.389 157.296 44.9643 156.967 44.401C156.638 43.829 156.473 43.1357 156.473 42.321V36.874H158.696ZM173.023 39.812C173.023 40.3407 172.902 40.826 172.659 41.268C172.416 41.7013 172.044 42.0523 171.541 42.321C171.038 42.5897 170.414 42.724 169.669 42.724H168.291V46H166.068V36.874H169.669C170.397 36.874 171.012 36.9997 171.515 37.251C172.018 37.5023 172.395 37.849 172.646 38.291C172.897 38.733 173.023 39.24 173.023 39.812ZM169.5 40.956C169.925 40.956 170.241 40.8563 170.449 40.657C170.657 40.4577 170.761 40.176 170.761 39.812C170.761 39.448 170.657 39.1663 170.449 38.967C170.241 38.7677 169.925 38.668 169.5 38.668H168.291V40.956H169.5ZM181.525 39.812C181.525 40.3407 181.404 40.826 181.161 41.268C180.919 41.7013 180.546 42.0523 180.043 42.321C179.541 42.5897 178.917 42.724 178.171 42.724H176.793V46H174.57V36.874H178.171C178.899 36.874 179.515 36.9997 180.017 37.251C180.52 37.5023 180.897 37.849 181.148 38.291C181.4 38.733 181.525 39.24 181.525 39.812ZM178.002 40.956C178.427 40.956 178.743 40.8563 178.951 40.657C179.159 40.4577 179.263 40.176 179.263 39.812C179.263 39.448 179.159 39.1663 178.951 38.967C178.743 38.7677 178.427 38.668 178.002 38.668H176.793V40.956H178.002ZM187.389 46.091C186.531 46.091 185.742 45.8917 185.023 45.493C184.312 45.0943 183.744 44.5397 183.32 43.829C182.904 43.1097 182.696 42.3037 182.696 41.411C182.696 40.5183 182.904 39.7167 183.32 39.006C183.744 38.2953 184.312 37.7407 185.023 37.342C185.742 36.9433 186.531 36.744 187.389 36.744C188.247 36.744 189.031 36.9433 189.742 37.342C190.461 37.7407 191.024 38.2953 191.432 39.006C191.848 39.7167 192.056 40.5183 192.056 41.411C192.056 42.3037 191.848 43.1097 191.432 43.829C191.016 44.5397 190.452 45.0943 189.742 45.493C189.031 45.8917 188.247 46.091 187.389 46.091ZM187.389 44.063C188.117 44.063 188.697 43.8203 189.131 43.335C189.573 42.8497 189.794 42.2083 189.794 41.411C189.794 40.605 189.573 39.9637 189.131 39.487C188.697 39.0017 188.117 38.759 187.389 38.759C186.652 38.759 186.063 38.9973 185.621 39.474C185.187 39.9507 184.971 40.5963 184.971 41.411C184.971 42.217 185.187 42.8627 185.621 43.348C186.063 43.8247 186.652 44.063 187.389 44.063ZM198.336 46L196.438 42.555H195.905V46H193.682V36.874H197.413C198.133 36.874 198.744 36.9997 199.246 37.251C199.758 37.5023 200.139 37.849 200.39 38.291C200.642 38.7243 200.767 39.2097 200.767 39.747C200.767 40.3537 200.594 40.8953 200.247 41.372C199.909 41.8487 199.407 42.1867 198.739 42.386L200.845 46H198.336ZM195.905 40.982H197.283C197.691 40.982 197.994 40.8823 198.193 40.683C198.401 40.4837 198.505 40.202 198.505 39.838C198.505 39.4913 198.401 39.2183 198.193 39.019C197.994 38.8197 197.691 38.72 197.283 38.72H195.905V40.982ZM209.118 36.874V38.655H206.7V46H204.477V38.655H202.059V36.874H209.118Z" fill="#89898B"/>
<path d="M99.2981 77.554V67.233H101.64V77.554H99.2981ZM95.3084 73.5643V71.2227H105.629V73.5643H95.3084ZM114.196 64.5185C114.927 64.5234 115.638 64.6527 116.329 64.9062C117.025 65.1548 117.651 65.5625 118.208 66.1293C118.765 66.6911 119.207 67.4442 119.536 68.3888C119.864 69.3335 120.028 70.5018 120.028 71.8938C120.033 73.2063 119.894 74.3796 119.61 75.4137C119.332 76.4428 118.932 77.3129 118.409 78.0238C117.887 78.7347 117.259 79.2766 116.523 79.6495C115.787 80.0224 114.959 80.2088 114.039 80.2088C113.075 80.2088 112.22 80.0199 111.474 79.642C110.733 79.2642 110.134 78.7472 109.677 78.0909C109.22 77.4347 108.939 76.6839 108.834 75.8388H111.556C111.695 76.4453 111.979 76.9276 112.406 77.2855C112.839 77.6385 113.383 77.815 114.039 77.815C115.098 77.815 115.914 77.3551 116.485 76.4354C117.057 75.5156 117.343 74.2379 117.343 72.6023H117.239C116.995 73.0398 116.679 73.4176 116.292 73.7358C115.904 74.049 115.464 74.2901 114.972 74.4592C114.484 74.6282 113.967 74.7127 113.42 74.7127C112.526 74.7127 111.72 74.4989 111.004 74.0714C110.293 73.6438 109.729 73.0572 109.311 72.3114C108.899 71.5657 108.69 70.7131 108.685 69.7536C108.685 68.7592 108.914 67.8668 109.371 67.0763C109.833 66.2809 110.477 65.6545 111.303 65.1971C112.128 64.7347 113.092 64.5085 114.196 64.5185ZM114.204 66.7557C113.667 66.7557 113.182 66.8874 112.749 67.1509C112.322 67.4094 111.984 67.7624 111.735 68.2099C111.492 68.6523 111.37 69.147 111.37 69.6939C111.375 70.2358 111.496 70.728 111.735 71.1705C111.979 71.6129 112.309 71.9634 112.727 72.2219C113.15 72.4805 113.632 72.6097 114.174 72.6097C114.576 72.6097 114.952 72.5327 115.3 72.3786C115.648 72.2244 115.951 72.0107 116.21 71.7372C116.473 71.4588 116.677 71.1431 116.821 70.7901C116.97 70.4371 117.042 70.0643 117.037 69.6715C117.037 69.1495 116.913 68.6673 116.664 68.2248C116.421 67.7823 116.085 67.4268 115.658 67.1584C115.235 66.8899 114.75 66.7557 114.204 66.7557ZM128.723 64.7273V80H125.956V67.4194H125.867L122.295 69.7013V67.1658L126.091 64.7273H128.723ZM143.239 80.2088C142.13 80.2088 141.146 80.0224 140.286 79.6495C139.431 79.2766 138.759 78.767 138.272 78.1207C137.79 77.4695 137.551 76.7312 137.556 75.9059C137.551 75.2646 137.691 74.6754 137.974 74.1385C138.257 73.6016 138.64 73.1541 139.122 72.7962C139.61 72.4332 140.152 72.2021 140.748 72.1026V71.9982C139.963 71.8242 139.326 71.424 138.839 70.7976C138.357 70.1662 138.118 69.4379 138.123 68.6126C138.118 67.8271 138.337 67.1261 138.779 66.5096C139.222 65.8931 139.828 65.4084 140.599 65.0554C141.37 64.6974 142.25 64.5185 143.239 64.5185C144.218 64.5185 145.091 64.6974 145.856 65.0554C146.627 65.4084 147.234 65.8931 147.676 66.5096C148.123 67.1261 148.347 67.8271 148.347 68.6126C148.347 69.4379 148.101 70.1662 147.609 70.7976C147.122 71.424 146.493 71.8242 145.722 71.9982V72.1026C146.319 72.2021 146.856 72.4332 147.333 72.7962C147.815 73.1541 148.198 73.6016 148.481 74.1385C148.77 74.6754 148.914 75.2646 148.914 75.9059C148.914 76.7312 148.67 77.4695 148.183 78.1207C147.696 78.767 147.025 79.2766 146.17 79.6495C145.319 80.0224 144.343 80.2088 143.239 80.2088ZM143.239 78.076C143.811 78.076 144.308 77.979 144.73 77.7852C145.153 77.5863 145.481 77.3079 145.715 76.9499C145.948 76.592 146.068 76.1793 146.073 75.712C146.068 75.2248 145.941 74.7947 145.692 74.4219C145.449 74.044 145.113 73.7482 144.686 73.5344C144.263 73.3207 143.781 73.2138 143.239 73.2138C142.692 73.2138 142.205 73.3207 141.777 73.5344C141.35 73.7482 141.012 74.044 140.763 74.4219C140.519 74.7947 140.4 75.2248 140.405 75.712C140.4 76.1793 140.514 76.592 140.748 76.9499C140.982 77.3029 141.31 77.5788 141.732 77.7777C142.16 77.9766 142.662 78.076 143.239 78.076ZM143.239 71.1183C143.706 71.1183 144.119 71.0238 144.477 70.8349C144.84 70.646 145.126 70.3825 145.334 70.0444C145.543 69.7063 145.65 69.3161 145.655 68.8736C145.65 68.4361 145.546 68.0533 145.342 67.7251C145.138 67.392 144.855 67.136 144.492 66.957C144.129 66.7731 143.711 66.6811 143.239 66.6811C142.757 66.6811 142.332 66.7731 141.964 66.957C141.601 67.136 141.317 67.392 141.114 67.7251C140.915 68.0533 140.818 68.4361 140.823 68.8736C140.818 69.3161 140.917 69.7063 141.121 70.0444C141.33 70.3775 141.616 70.641 141.979 70.8349C142.346 71.0238 142.767 71.1183 143.239 71.1183ZM151.366 80V78.0014L156.668 72.8036C157.175 72.2915 157.597 71.8366 157.936 71.4389C158.274 71.0412 158.527 70.6559 158.696 70.283C158.865 69.9102 158.95 69.5124 158.95 69.0898C158.95 68.6076 158.84 68.195 158.622 67.8519C158.403 67.5039 158.102 67.2354 157.719 67.0465C157.336 66.8576 156.901 66.7631 156.414 66.7631C155.912 66.7631 155.472 66.8675 155.094 67.0763C154.716 67.2802 154.423 67.571 154.214 67.9489C154.01 68.3267 153.909 68.7766 153.909 69.2987H151.276C151.276 68.3292 151.497 67.4865 151.94 66.7706C152.382 66.0547 152.991 65.5004 153.767 65.1076C154.547 64.7148 155.442 64.5185 156.451 64.5185C157.476 64.5185 158.375 64.7099 159.151 65.0927C159.927 65.4755 160.528 66 160.956 66.6662C161.388 67.3324 161.605 68.093 161.605 68.9482C161.605 69.5199 161.495 70.0817 161.276 70.6335C161.058 71.1854 160.672 71.7969 160.121 72.468C159.574 73.1392 158.806 73.9521 157.816 74.9066L155.184 77.5838V77.6882H161.836V80H151.366ZM164.968 80L171.463 67.1435V67.0391H163.924V64.7273H174.327V67.0913L167.839 80H164.968ZM188.155 64.7273V80H185.388V67.4194H185.299L181.726 69.7013V67.1658L185.522 64.7273H188.155ZM192.592 80L199.087 67.1435V67.0391H191.548V64.7273H201.951V67.0913L195.463 80H192.592ZM202.851 77.1662V74.9663L209.332 64.7273H211.166V67.8594H210.048L205.685 74.7724V74.8917H214.731V77.1662H202.851ZM210.137 80V76.495L210.167 75.5107V64.7273H212.777V80H210.137ZM222.323 80V78.0014L227.625 72.8036C228.132 72.2915 228.554 71.8366 228.893 71.4389C229.231 71.0412 229.484 70.6559 229.653 70.283C229.822 69.9102 229.907 69.5124 229.907 69.0898C229.907 68.6076 229.797 68.195 229.579 67.8519C229.36 67.5039 229.059 67.2354 228.676 67.0465C228.293 66.8576 227.858 66.7631 227.371 66.7631C226.869 66.7631 226.429 66.8675 226.051 67.0763C225.673 67.2802 225.38 67.571 225.171 67.9489C224.967 68.3267 224.866 68.7766 224.866 69.2987H222.233C222.233 68.3292 222.454 67.4865 222.897 66.7706C223.339 66.0547 223.948 65.5004 224.724 65.1076C225.504 64.7148 226.399 64.5185 227.409 64.5185C228.433 64.5185 229.333 64.7099 230.108 65.0927C230.884 65.4755 231.485 66 231.913 66.6662C232.345 67.3324 232.562 68.093 232.562 68.9482C232.562 69.5199 232.452 70.0817 232.233 70.6335C232.015 71.1854 231.629 71.7969 231.078 72.468C230.531 73.1392 229.763 73.9521 228.773 74.9066L226.141 77.5838V77.6882H232.793V80H222.323ZM240.668 64.5185C241.399 64.5234 242.11 64.6527 242.801 64.9062C243.497 65.1548 244.123 65.5625 244.68 66.1293C245.237 66.6911 245.679 67.4442 246.007 68.3888C246.335 69.3335 246.499 70.5018 246.499 71.8938C246.504 73.2063 246.365 74.3796 246.082 75.4137C245.803 76.4428 245.403 77.3129 244.881 78.0238C244.359 78.7347 243.73 79.2766 242.994 79.6495C242.259 80.0224 241.431 80.2088 240.511 80.2088C239.547 80.2088 238.692 80.0199 237.946 79.642C237.205 79.2642 236.606 78.7472 236.149 78.0909C235.691 77.4347 235.41 76.6839 235.306 75.8388H238.028C238.167 76.4453 238.45 76.9276 238.878 77.2855C239.311 77.6385 239.855 77.815 240.511 77.815C241.57 77.815 242.385 77.3551 242.957 76.4354C243.529 75.5156 243.815 74.2379 243.815 72.6023H243.71C243.467 73.0398 243.151 73.4176 242.763 73.7358C242.375 74.049 241.936 74.2901 241.443 74.4592C240.956 74.6282 240.439 74.7127 239.892 74.7127C238.997 74.7127 238.192 74.4989 237.476 74.0714C236.765 73.6438 236.201 73.0572 235.783 72.3114C235.371 71.5657 235.162 70.7131 235.157 69.7536C235.157 68.7592 235.385 67.8668 235.843 67.0763C236.305 66.2809 236.949 65.6545 237.774 65.1971C238.6 64.7347 239.564 64.5085 240.668 64.5185ZM240.675 66.7557C240.138 66.7557 239.654 66.8874 239.221 67.1509C238.793 67.4094 238.455 67.7624 238.207 68.2099C237.963 68.6523 237.841 69.147 237.841 69.6939C237.846 70.2358 237.968 70.728 238.207 71.1705C238.45 71.6129 238.781 71.9634 239.199 72.2219C239.621 72.4805 240.103 72.6097 240.645 72.6097C241.048 72.6097 241.423 72.5327 241.771 72.3786C242.119 72.2244 242.423 72.0107 242.681 71.7372C242.945 71.4588 243.149 71.1431 243.293 70.7901C243.442 70.4371 243.514 70.0643 243.509 69.6715C243.509 69.1495 243.385 68.6673 243.136 68.2248C242.893 67.7823 242.557 67.4268 242.129 67.1584C241.707 66.8899 241.222 66.7557 240.675 66.7557ZM254.292 80.2088C253.298 80.2088 252.408 80.0224 251.623 79.6495C250.837 79.2717 250.213 78.7546 249.751 78.0984C249.293 77.4421 249.05 76.6914 249.02 75.8462H251.705C251.754 76.4727 252.025 76.9847 252.518 77.3825C253.01 77.7752 253.601 77.9716 254.292 77.9716C254.834 77.9716 255.317 77.8473 255.739 77.5987C256.162 77.3501 256.495 77.0046 256.738 76.5621C256.982 76.1197 257.101 75.6151 257.096 75.0483C257.101 74.4716 256.98 73.9595 256.731 73.5121C256.482 73.0646 256.142 72.7141 255.709 72.4606C255.277 72.2021 254.78 72.0728 254.218 72.0728C253.76 72.0678 253.311 72.1523 252.868 72.3263C252.426 72.5004 252.075 72.729 251.817 73.0124L249.318 72.6023L250.116 64.7273H258.976V67.0391H252.406L251.966 71.0884H252.055C252.339 70.7553 252.739 70.4794 253.256 70.2607C253.773 70.0369 254.34 69.9251 254.956 69.9251C255.881 69.9251 256.706 70.1438 257.432 70.5813C258.158 71.0138 258.73 71.6104 259.147 72.3711C259.565 73.1317 259.774 74.0018 259.774 74.9812C259.774 75.9904 259.54 76.8903 259.073 77.6808C258.61 78.4663 257.966 79.0852 257.141 79.5376C256.321 79.9851 255.371 80.2088 254.292 80.2088ZM267.753 80.2088C266.679 80.2088 265.725 80.0249 264.889 79.657C264.059 79.2891 263.403 78.777 262.921 78.1207C262.438 77.4645 262.182 76.7063 262.152 75.8462H264.956C264.981 76.2589 265.118 76.6193 265.367 76.9276C265.615 77.2308 265.946 77.467 266.358 77.636C266.771 77.805 267.233 77.8896 267.746 77.8896C268.292 77.8896 268.777 77.7951 269.2 77.6062C269.622 77.4123 269.953 77.1438 270.192 76.8008C270.43 76.4577 270.547 76.0625 270.542 75.6151C270.547 75.1527 270.428 74.745 270.184 74.392C269.94 74.0391 269.587 73.7631 269.125 73.5643C268.668 73.3654 268.116 73.266 267.47 73.266H266.12V71.1332H267.47C268.002 71.1332 268.466 71.0412 268.864 70.8572C269.267 70.6733 269.583 70.4148 269.811 70.0817C270.04 69.7436 270.152 69.3533 270.147 68.9109C270.152 68.4783 270.055 68.103 269.856 67.7848C269.662 67.4616 269.386 67.2106 269.028 67.0316C268.675 66.8526 268.26 66.7631 267.783 66.7631C267.315 66.7631 266.883 66.8477 266.485 67.0167C266.087 67.1857 265.767 67.4268 265.523 67.7401C265.28 68.0483 265.15 68.4162 265.135 68.8438H262.473C262.493 67.9886 262.739 67.2379 263.211 66.5916C263.689 65.9403 264.325 65.4332 265.121 65.0703C265.916 64.7024 266.808 64.5185 267.798 64.5185C268.817 64.5185 269.702 64.7099 270.453 65.0927C271.208 65.4705 271.792 65.9801 272.205 66.6214C272.618 67.2628 272.824 67.9712 272.824 68.7468C272.829 69.6069 272.575 70.3278 272.063 70.9094C271.556 71.4911 270.89 71.8714 270.065 72.0504V72.1697C271.139 72.3189 271.961 72.7166 272.533 73.3629C273.11 74.0043 273.396 74.8022 273.391 75.7567C273.391 76.6119 273.147 77.3775 272.66 78.0536C272.178 78.7248 271.511 79.2518 270.661 79.6346C269.816 80.0174 268.847 80.2088 267.753 80.2088Z" fill="#EE4A62"/>
</svg>
