<svg width="337" height="64" viewBox="0 0 337 64" fill="none" xmlns="http://www.w3.org/2000/svg">
<mask id="mask0_635_3049" style="mask-type:luminance" maskUnits="userSpaceOnUse" x="79" y="14" width="70" height="37">
<path d="M79.3906 14.0736H148.407V50.2296H79.3906V14.0736Z" fill="white"/>
</mask>
<g mask="url(#mask0_635_3049)">
<path d="M127.84 14.1578C121.301 15.0206 115.464 19.0296 112.668 25.0564C109.689 31.4813 107.443 41.7781 98.5237 42.1675C96.7194 42.2472 95.0535 42.0835 93.4055 41.3091C87.1171 38.3577 86.13 29.968 90.6811 25.0608C93.0482 22.5076 96.8132 21.4633 100.181 22.3041C101.378 22.6005 102.463 23.1536 103.499 23.7997C103.937 24.074 104.482 24.4501 104.995 24.1271C105.705 23.6802 106.219 22.5607 106.728 21.9058C107.385 21.0651 109.082 19.6314 108.988 18.4809C108.876 17.1756 106.478 16.3083 105.437 15.8835C101.565 14.2905 97.0856 13.9321 92.9901 14.7596C77.7246 17.8305 74.5224 39.6011 87.4565 47.5084C93.1553 50.9908 102.043 51.0129 107.648 47.3314C109.216 46.3004 110.502 45.0039 111.659 43.5437C112.029 43.0746 112.597 41.8268 113.253 41.7339C113.794 41.6542 114.477 43.0481 114.763 43.4065C116.018 45.0128 117.617 46.3845 119.403 47.3978C124.566 50.3182 130.828 50.7607 136.41 48.7916C145.495 45.588 150.586 34.7558 147.277 25.7422C145.146 19.9411 139.957 15.8437 133.923 14.6489C132.011 14.2684 129.787 13.9011 127.84 14.1578Z" fill="#F43210"/>
</g>
<path d="M128.492 22.9589C120.823 24.1448 117.536 34.2425 123.65 39.2869C124.758 40.1984 126.142 40.7869 127.522 41.1321C128.768 41.4418 130.256 41.548 131.533 41.34C132.806 41.1365 134.092 40.6099 135.128 39.8577C142.743 34.3575 138.206 21.4544 128.492 22.9589Z" fill="white"/>
<path d="M58.2331 13.6648C47.9966 13.6648 41.2347 20.165 41.2347 29.8423V50.5288H51.0068V30.9043C51.0068 25.8643 53.682 22.8155 58.2331 22.8155C62.7171 22.8155 65.4594 25.7979 65.4594 30.9043V50.5288H75.2314V29.8423C75.2314 20.165 68.4071 13.6648 58.2331 13.6648Z" fill="white"/>
<path d="M37.4758 32.3739C37.4758 22.0285 29.8476 13.5459 18.7402 13.5459C8.03022 13.5459 0 21.701 0 32.4403C0 43.1796 8.09721 51.4011 18.7402 51.4011C27.1679 51.4011 34.0637 46.4275 36.6719 38.6042H26.4354C24.9616 41.1884 22.1523 42.7814 18.7402 42.7814C13.9881 42.7814 10.7769 40.0645 9.90602 35.1572H37.2749C37.4088 34.228 37.4758 33.2988 37.4758 32.3739ZM18.7402 21.8294C23.1528 21.8294 26.3014 24.2188 27.7038 28.5951H10.174C11.3084 24.3516 14.3901 21.8294 18.7402 21.8294Z" fill="white"/>
<path d="M181.444 0.862793V15.7128C178.635 13.7924 175.29 12.7304 171.543 12.7304C160.569 12.7304 152.534 20.8192 152.534 31.6912C152.534 42.5013 160.569 50.6564 171.543 50.6564C175.96 50.6564 179.841 49.1298 182.851 46.6121L183.99 49.5945H191.216V0.862793H181.444ZM172.346 41.5057C166.657 41.5057 162.507 37.2622 162.507 31.6912C162.507 26.0583 166.657 21.8812 172.346 21.8812C178.032 21.8812 182.181 26.0583 182.181 31.6912C182.181 37.2622 178.032 41.5057 172.346 41.5057Z" fill="white"/>
<path d="M200.649 8.95162H210.354V0H200.649V8.95162ZM200.649 49.5282H210.421V13.7261H200.649V49.5282Z" fill="white"/>
<path d="M232.808 13.6648C222.571 13.6648 215.809 20.165 215.809 29.8423V50.5288H225.581V30.9043C225.581 25.8643 228.256 22.8155 232.808 22.8155C237.292 22.8155 240.034 25.7979 240.034 30.9043V50.5288H249.806V29.8423C249.806 20.165 242.982 13.6648 232.808 13.6648Z" fill="white"/>
<path d="M285.614 14.2771L284.011 17.8568C280.862 15.0072 276.718 13.2859 272.033 13.2859C261.926 13.2859 254.029 21.2419 254.029 31.2511C254.029 41.3266 261.926 49.2163 272.033 49.2163C275.914 49.2163 279.46 48.026 282.336 46.0347V47.3622C282.336 52.5969 278.254 55.7828 273.301 55.7828C269.688 55.7828 265.874 54.1235 264.739 50.8756H255.034C256.709 59.0307 263.667 63.9999 273.435 63.9999C284.877 63.9999 291.907 57.1723 291.907 45.9684V14.3434L285.614 14.2771ZM273.167 40.5346C267.817 40.5346 263.935 36.6229 263.935 31.3174C263.935 25.9456 267.817 22.034 273.167 22.034C278.522 22.034 282.403 25.9456 282.403 31.3174C282.403 36.6229 278.522 40.5346 273.167 40.5346Z" fill="white"/>
<path d="M317.46 51.4011C328.635 51.4011 337 43.246 337 32.4403C337 21.6347 328.635 13.5459 317.46 13.5459C306.286 13.5459 297.921 21.6347 297.921 32.4403C297.921 43.246 306.286 51.4011 317.46 51.4011ZM317.46 42.2504C311.842 42.2504 307.827 38.2724 307.827 32.4403C307.827 26.6702 311.842 22.6258 317.46 22.6258C323.083 22.6258 327.099 26.6702 327.099 32.4403C327.099 38.2724 323.083 42.2504 317.46 42.2504Z" fill="white"/>
</svg>
