<svg width="255" height="50" viewBox="0 0 255 50" fill="none" xmlns="http://www.w3.org/2000/svg">
<mask id="mask0_635_3013" style="mask-type:luminance" maskUnits="userSpaceOnUse" x="60" y="10" width="53" height="30">
<path d="M60.073 10.995H112.296V39.2419H60.073V10.995Z" fill="white"/>
</mask>
<g mask="url(#mask0_635_3013)">
<path d="M96.7335 11.0607C91.7859 11.7348 87.369 14.8668 85.2534 19.5752C82.9993 24.5947 81.2995 32.6391 74.5507 32.9433C73.1854 33.0055 71.9248 32.8776 70.6778 32.2727C65.9195 29.9669 65.1727 23.4125 68.6163 19.5787C70.4074 17.584 73.2563 16.7682 75.8044 17.425C76.7101 17.6566 77.5314 18.0887 78.3154 18.5934C78.6466 18.8078 79.0589 19.1016 79.4475 18.8493C79.9848 18.5001 80.3735 17.6255 80.7587 17.1139C81.2555 16.457 82.5397 15.337 82.4688 14.4382C82.3843 13.4184 80.5695 12.7408 79.7821 12.4089C76.8521 11.1644 73.4625 10.8844 70.3635 11.5308C58.8125 13.93 56.3894 30.9383 66.1764 37.1159C70.4886 39.8365 77.2137 39.8538 81.4549 36.9776C82.6411 36.1721 83.6144 35.1592 84.4897 34.0184C84.7702 33.652 85.1994 32.6771 85.6961 32.6045C86.1051 32.5423 86.6221 33.6313 86.8384 33.9113C87.788 35.1662 88.9979 36.2378 90.3497 37.0295C94.2563 39.3111 98.9943 39.6568 103.219 38.1184C110.092 35.6156 113.945 27.1529 111.441 20.111C109.829 15.579 105.902 12.3778 101.336 11.4444C99.8899 11.1471 98.2069 10.8602 96.7335 11.0607Z" fill="#F43210"/>
</g>
<path d="M97.2266 17.9367C91.4241 18.8631 88.9368 26.7519 93.5633 30.6929C94.4014 31.405 95.449 31.8648 96.4933 32.1345C97.4361 32.3764 98.5615 32.4594 99.528 32.2969C100.491 32.1379 101.464 31.7265 102.248 31.1388C108.01 26.8418 104.577 16.7613 97.2266 17.9367Z" fill="white"/>
<path d="M44.0637 10.6757C36.3179 10.6757 31.2014 15.7539 31.2014 23.3143V39.4757H38.5957V24.144C38.5957 20.2065 40.62 17.8247 44.0637 17.8247C47.4566 17.8247 49.5316 20.1547 49.5316 24.144V39.4757H56.9259V23.3143C56.9259 15.7539 51.7621 10.6757 44.0637 10.6757Z" fill="black"/>
<path d="M28.3571 25.2922C28.3571 17.2098 22.585 10.5828 14.1802 10.5828C6.07628 10.5828 0 16.954 0 25.344C0 33.7341 6.12697 40.1571 14.1802 40.1571C20.5573 40.1571 25.7752 36.2715 27.7488 30.1596H20.003C18.8878 32.1785 16.7621 33.423 14.1802 33.423C10.5845 33.423 8.15465 31.3004 7.49565 27.4666H28.205C28.3064 26.7406 28.3571 26.0147 28.3571 25.2922ZM14.1802 17.0542C17.5191 17.0542 19.9017 18.921 20.9628 22.3399H7.69842C8.5568 19.0247 10.8886 17.0542 14.1802 17.0542Z" fill="black"/>
<path d="M137.294 0.674072V12.2757C135.169 10.7753 132.638 9.94567 129.802 9.94567C121.499 9.94567 115.419 16.265 115.419 24.7588C115.419 33.2042 121.499 39.5754 129.802 39.5754C133.144 39.5754 136.081 38.3827 138.359 36.4157L139.221 38.7457H144.689V0.674072H137.294ZM130.41 32.4263C126.105 32.4263 122.966 29.1111 122.966 24.7588C122.966 20.3581 126.105 17.0947 130.41 17.0947C134.713 17.0947 137.852 20.3581 137.852 24.7588C137.852 29.1111 134.713 32.4263 130.41 32.4263Z" fill="black"/>
<path d="M151.826 6.99345H159.17V0H151.826V6.99345ZM151.826 38.6939H159.22V10.7235H151.826V38.6939Z" fill="black"/>
<path d="M176.16 10.6757C168.414 10.6757 163.298 15.7539 163.298 23.3143V39.4757H170.692V24.144C170.692 20.2065 172.716 17.8247 176.16 17.8247C179.553 17.8247 181.628 20.1547 181.628 24.144V39.4757H189.022V23.3143C189.022 15.7539 183.859 10.6757 176.16 10.6757Z" fill="black"/>
<path d="M216.118 11.154L214.904 13.9507C212.522 11.7244 209.386 10.3796 205.841 10.3796C198.193 10.3796 192.218 16.5953 192.218 24.4149C192.218 32.2865 198.193 38.4502 205.841 38.4502C208.778 38.4502 211.461 37.5203 213.637 35.9647V37.0018C213.637 41.0914 210.548 43.5804 206.801 43.5804C204.067 43.5804 201.18 42.284 200.322 39.7466H192.979C194.246 46.1178 199.511 50 206.902 50C215.56 50 220.879 44.6659 220.879 35.9128V11.2059L216.118 11.154ZM206.699 31.6677C202.651 31.6677 199.714 28.6117 199.714 24.4668C199.714 20.27 202.651 17.2141 206.699 17.2141C210.751 17.2141 213.688 20.27 213.688 24.4668C213.688 28.6117 210.751 31.6677 206.699 31.6677Z" fill="black"/>
<path d="M240.215 40.1571C248.67 40.1571 255 33.7859 255 25.344C255 16.9021 248.67 10.5828 240.215 10.5828C231.759 10.5828 225.43 16.9021 225.43 25.344C225.43 33.7859 231.759 40.1571 240.215 40.1571ZM240.215 33.0081C235.963 33.0081 232.925 29.9003 232.925 25.344C232.925 20.8361 235.963 17.6765 240.215 17.6765C244.47 17.6765 247.508 20.8361 247.508 25.344C247.508 29.9003 244.47 33.0081 240.215 33.0081Z" fill="black"/>
</svg>
